<?xml version="1.0" encoding="UTF-8" standalone="no"?><!DOCTYPE svg PUBLIC "-//W3C//DTD SVG 1.1//EN" "http://www.w3.org/Graphics/SVG/1.1/DTD/svg11.dtd"><svg width="100%" height="100%" viewBox="0 0 3434 2175" version="1.1" xmlns="http://www.w3.org/2000/svg" xmlns:xlink="http://www.w3.org/1999/xlink" xml:space="preserve" xmlns:serif="http://www.serif.com/" style="fill-rule:evenodd;clip-rule:evenodd;stroke-linejoin:round;stroke-miterlimit:2;"><path d="M91.667,87.5c20.678,1.723 32.143,12.377 46.875,25.781c5.203,4.585 10.411,9.164 15.625,13.737c2.723,2.404 5.446,4.807 8.252,7.284c158.434,138.668 342.035,239.706 536.576,318.556c23.072,9.354 46.108,18.793 69.131,28.268c7.638,3.135 15.287,6.245 22.936,9.354c121.85,50.012 121.85,50.012 146.503,105.988c12.533,36.255 16.674,74.006 21.056,111.909c11.92,102.795 50.614,176.408 128.879,245.79c8.536,6.699 17.224,13.207 26.042,19.531c2.24,1.607 4.481,3.215 6.789,4.871c12.175,8.302 23.075,14.043 37.319,17.964c31.894,10.16 31.894,10.16 42.35,24.3c9.818,31.565 9.468,65.702 11.336,98.472c2.665,32.126 12.109,62.649 21.997,93.195c0.874,2.768 1.747,5.536 2.647,8.388c22.399,69.474 58.217,137.116 101.52,195.779c1.629,2.211 3.258,4.423 4.936,6.701c38.675,52.037 82.075,102.402 132.564,143.299c4.49,3.799 8.976,7.603 13.46,11.409c75.833,63.721 157.679,116.852 244.873,163.591c3.843,2.081 7.685,4.162 11.644,6.307c47.986,25.927 96.755,50.05 146.169,73.12c4.878,2.285 9.756,4.571 14.782,6.925c25.461,11.749 50.591,22.088 77.405,30.314c-2.836,-2.062 -5.672,-4.125 -8.593,-6.25c-12.457,-10.601 -22.526,-21.736 -33.09,-34.163c-5.698,-6.568 -11.557,-12.999 -17.545,-19.303c-71.48,-75.419 -123.362,-163.239 -157.438,-261.117c-1.007,-2.857 -2.013,-5.715 -3.05,-8.659c-30.579,-91.212 -23.391,-202.529 18.675,-288.737c34.806,-67.057 85.251,-126.959 151.041,-165.104c-7.251,-0.612 -7.251,-0.612 -14.648,-1.237c-52.328,-4.839 -97.044,-15.316 -143.685,-40.43l0,-12.5c2.471,-0.395 4.943,-0.791 7.489,-1.199c97.764,-15.941 193.279,-41.974 256.313,-125.103c45.493,-66.747 66.587,-136.787 52.083,-216.927c-11.254,-52.274 -33.932,-108.15 -70.052,-148.437c-16.032,6.11 -31.128,13.339 -46.37,21.207c-2.429,1.252 -4.858,2.504 -7.361,3.794c-7.877,4.067 -15.746,8.151 -23.612,12.238c-2.683,1.392 -5.366,2.784 -8.13,4.219c-34.752,18.044 -69.44,36.206 -103.85,54.896c-3.292,1.767 -6.585,3.533 -9.978,5.354c-52.091,28.613 -83.935,72.034 -104.865,127.458c-1.451,3.821 -1.451,3.821 -2.931,7.718c-1.717,12.428 2.32,18.052 8.53,28.838c3.15,5.672 3.15,5.672 6.364,11.459c4.51,7.896 9.035,15.785 13.574,23.665c2.1,3.792 4.2,7.584 6.364,11.491c1.968,3.429 3.937,6.857 5.965,10.39c6.697,18.688 1.265,31.929 -6.562,49.574c-2.603,5.058 -5.244,10.096 -7.916,15.117c-1.414,2.723 -2.829,5.446 -4.286,8.252c-4.512,8.665 -9.072,17.304 -13.634,25.944c-2.984,5.72 -5.965,11.441 -8.943,17.163c-16.543,31.713 -33.421,63.233 -50.692,94.556c-7.805,-1.278 -7.805,-1.278 -16.667,-4.167c-6.546,-9.984 -11.964,-19.47 -17.301,-30.078c-2.388,-4.574 -2.388,-4.574 -4.823,-9.241c-5.092,-9.783 -10.105,-19.605 -15.115,-29.431c-5.002,-9.676 -10.02,-19.344 -15.04,-29.012c-3.225,-6.23 -6.435,-12.469 -9.627,-18.717c-8.198,-16.013 -16.789,-31.547 -26.131,-46.932c-6.034,-10.917 -7.779,-15.398 -8.382,-28.19c8.239,-21.783 20.584,-41.446 32.91,-61.149c8.254,-14.432 14.123,-24.802 12.33,-41.684c-3.071,-10.656 -6.752,-20.469 -11.321,-30.566c-1.724,-3.819 -3.448,-7.637 -5.224,-11.572c-37.892,-62.549 -85.111,-93.329 -149.984,-123.323c-32.698,-15.355 -64.36,-31.496 -95.459,-49.854c-14.74,-8.617 -29.779,-16.198 -45.166,-23.584c-1.047,2.202 -2.095,4.404 -3.174,6.673c-6.469,12.53 -13.804,24.456 -21.045,36.556c-41.068,70.757 -56.937,145.553 -38.118,225.488c20.39,74.434 65.291,134.599 131.868,173.731c48.669,27.134 96.751,39.335 151.481,46.81c16.488,2.409 16.488,2.409 28.988,6.575l0,12.5c-64.41,37.779 -138.598,47.238 -211.458,33.073c-71.864,-19.591 -133.875,-64.623 -171.875,-128.906c-53.174,-98.031 -66.578,-213.322 -35.059,-320.827c13.968,-44.61 34.889,-95.67 68.392,-129.173c-3.921,-2.97 -7.842,-5.94 -11.882,-9.001c-65.592,-50.165 -103.399,-106.164 -120.149,-188.395c-1.872,-21.709 -1.624,-43.329 -1.302,-65.104c25.466,2.112 45.871,13.311 68.375,24.512c4.183,2.052 8.366,4.104 12.676,6.218c8.85,4.349 17.693,8.714 26.528,13.093c13.351,6.617 26.724,13.188 40.101,19.751c8.636,4.251 17.271,8.504 25.904,12.761c4.182,2.06 8.365,4.119 12.674,6.242c26.76,13.274 52.815,27.263 78.365,42.763c10.365,4.965 10.365,4.965 21.274,0.845c10.898,-5.87 21.735,-11.84 32.506,-17.939c123.67,-69.249 272.705,-89.527 410.763,-58.246c4.42,0.94 4.42,0.94 8.93,1.898c55.15,12.019 128.01,33.369 169.922,72.197c2.854,1.673 5.708,3.347 8.648,5.072c17.66,-4.758 33.439,-12.087 49.692,-20.372c4.769,-2.418 9.539,-4.837 14.452,-7.329c2.514,-1.284 5.028,-2.568 7.618,-3.892c7.927,-4.046 15.866,-8.066 23.81,-12.078c22.568,-11.405 45.119,-22.842 67.645,-34.328c13.817,-7.043 27.653,-14.044 41.503,-21.02c5.259,-2.66 10.51,-5.334 15.753,-8.025c7.327,-3.759 14.684,-7.462 22.041,-11.163c4.172,-2.122 8.343,-4.243 12.641,-6.429c11.771,-4.633 19.835,-5.493 32.345,-4.531c-2.261,79.699 -20.649,156.638 -77.441,215.869c-13.51,12.264 -27.838,22.623 -43.115,32.569c-9.027,5.598 -9.027,5.598 -16.944,14.062c1.719,1.885 3.438,3.771 5.209,5.713c57.845,68.304 79.761,155.894 80.208,243.506c0.027,4.964 0.054,9.928 0.081,15.043c-0.674,46.957 -8.848,91.95 -26.644,135.478c-1.064,2.642 -2.128,5.285 -3.224,8.007c-5.757,13.774 -11.805,24.928 -21.776,36.003c-16.509,19.885 -10.266,52.699 -8.854,77.083c89.24,-47.112 162.198,-120.902 195.445,-217.334c7.594,-26.672 10.393,-53.574 13.149,-81.103c5.454,-53.997 11.494,-106.208 49.74,-147.396c2.46,-2.729 4.92,-5.457 7.454,-8.268c18.669,-18.598 38.628,-30.078 62.305,-40.902c3.1,-1.437 6.2,-2.874 9.394,-4.354c30.312,-13.916 61.074,-26.68 91.957,-39.267c219.799,-89.806 426.162,-201.156 601.871,-362.678c2.901,-2.664 5.801,-5.328 8.789,-8.073c2.375,-2.256 4.749,-4.511 7.195,-6.836c6.868,-4.622 6.868,-4.622 23.535,-4.622c2.018,8.328 4.009,16.663 5.989,25c1.668,6.961 1.668,6.961 3.369,14.063c18.154,87.286 12.742,179.44 -34.358,256.77c-8.993,13.208 -18.765,25.382 -29.167,37.5c-4.101,5.004 -4.101,5.004 -8.285,10.108c-108.022,126.981 -288.583,182.937 -441.715,231.559c155.266,-10.595 322.621,-48.773 459.961,-124.105c10.872,-5.062 10.872,-5.062 27.539,-5.062c-0.877,52.306 -3.661,100.167 -20.833,150c-2.256,6.599 -2.256,6.599 -4.558,13.33c-11.852,31.274 -28.78,56.497 -49.609,82.504c-2.315,3.05 -4.63,6.101 -7.015,9.244c-64.994,81.048 -188.947,101.872 -286.507,113.265c-56.044,4.747 -112.775,2.859 -168.978,2.491c136.981,44.699 265.567,48.165 408.333,45.833c-1.228,5.911 -2.48,11.816 -3.742,17.72c-0.695,3.289 -1.39,6.578 -2.105,9.967c-3.835,15.139 -10.204,28.529 -17.33,42.365c-1.452,2.854 -2.905,5.709 -4.401,8.65c-34.452,65.653 -85.803,123.724 -157.578,148.121c-123.932,37.601 -256.273,-19.473 -369.01,-68.49c91.817,75.614 188.889,133.033 300,175c-7.274,36.454 -54.952,68.117 -84.017,88.396c-57.503,36.196 -113.471,52.711 -180.827,40.771c-71.095,-16.294 -128.421,-59.722 -180.99,-108.333c-5.967,-5.32 -11.955,-10.617 -17.968,-15.886c-2.476,-2.175 -4.953,-4.35 -7.504,-6.592c-9.399,-7.998 -19.026,-15.685 -28.694,-23.356c43.407,77.118 95.518,157.571 170.914,207.292c4.099,3.094 8.197,6.188 12.419,9.375l-0,16.667c-73.733,35.33 -154.413,44.955 -233.333,20.833c-61.86,-24.011 -95.967,-65.325 -129.167,-120.833c-4.555,212.52 44.913,443.037 193.75,603.906c2.793,2.873 5.586,5.747 8.464,8.708c6.119,8.219 6.119,8.219 6.119,24.886c-147.46,4.147 -280.335,-30.214 -416.666,-83.334c-5.741,-2.234 -5.741,-2.234 -11.597,-4.514c-17.036,-6.669 -34.011,-13.462 -50.903,-20.486c-1.375,5.5 -2.75,11 -4.167,16.667c3.523,0.688 7.047,1.375 10.677,2.083c21.861,9.54 29.568,19.772 43.49,39.584c2.75,16.5 5.5,33 8.333,50l-354.167,-0c6.061,-60.606 6.061,-60.606 30.99,-84.896c21.406,-13.575 38.969,-16.25 64.062,-15.625c2.887,0.037 5.774,0.075 8.749,0.114c7.067,0.097 14.133,0.247 21.199,0.407c0.505,-2.67 1.01,-5.339 1.53,-8.09c4.124,-21.282 8.825,-42.004 15.137,-62.744c-3.029,-1.262 -17.559,-7.316 -21.875,-9.114c-4.528,-1.88 -9.056,-3.76 -13.721,-5.697c-9.492,-3.968 -18.965,-7.982 -28.418,-12.044c-4.399,-1.88 -8.798,-3.76 -13.33,-5.697c-4.044,-1.745 -8.089,-3.491 -12.256,-5.289c-10.508,-4.544 -10.508,-4.544 -22.9,-3.825c-6.813,6.221 -6.813,6.221 -13.281,14.583c-13.244,15.865 -66.364,74.115 -70.052,77.083c-7.552,7.308 -7.552,7.308 -16.667,14.844c-12.29,9.832 -12.29,9.832 -20.833,22.656c3.48,1.289 3.48,1.289 7.031,2.605c19.37,11.517 30.297,26.475 35.937,47.916c2.865,16.146 2.865,16.146 2.865,32.813l-412.5,-0c4.468,-40.208 9.088,-59.819 39.681,-84.961c27.838,-18.09 56.232,-24.532 88.896,-20.447c15.932,1.366 28.145,1.046 42.256,-7.092c24.142,-26.965 39.336,-61.025 55.109,-93.339c7.034,-14.398 14.516,-28.525 22.121,-42.631c25.17,-45.132 25.17,-45.132 43.604,-93.197c-1.736,-1.61 -3.472,-3.219 -5.261,-4.878c-95.958,-89.116 -173.938,-170.11 -219.739,-295.122c-3.175,4.426 -6.349,8.852 -9.619,13.411c-45.225,62.258 -89.368,106.438 -167.855,122.136c-67.342,9.267 -132.327,-2.135 -193.36,-31.38l0,-12.5c6.006,-5.404 6.006,-5.404 14.844,-11.459c75.133,-56.35 129.311,-131.23 172.656,-213.541c-3.115,3.152 -6.23,6.305 -9.44,9.554c-8.807,8.719 -17.638,17.004 -27.018,25.081c-8.884,7.66 -17.686,15.344 -26.286,23.324c-60.478,55.817 -140.277,109.305 -225.944,105.973c-75.677,-9.582 -131.53,-46.462 -186.312,-97.266c-4.082,-3.598 -8.164,-7.197 -12.369,-10.905c-8.464,-9.928 -8.464,-9.928 -8.29,-18.206c5.902,-12.399 13.504,-14.091 26.079,-19.196c4.635,-1.943 9.269,-3.886 14.044,-5.888c5.007,-2.053 10.014,-4.106 15.172,-6.221c87.58,-37.252 177.908,-86.896 244.531,-156.25c-2.445,1.109 -4.89,2.219 -7.409,3.362c-57.627,25.997 -115.254,49.549 -175.924,67.471c-5.065,1.504 -10.13,3.008 -15.349,4.557c-74.364,18.92 -153.967,13.674 -220.898,-24.56c-64.442,-42.936 -118.378,-110.423 -134.897,-187.097c-0.729,-3.358 -1.457,-6.716 -2.208,-10.175c-0.544,-2.549 -1.088,-5.099 -1.648,-7.725c3.458,0.028 3.458,0.028 6.986,0.056c24.34,0.187 48.68,0.311 73.021,0.402c9.042,0.041 18.085,0.098 27.128,0.171c69.239,0.543 134.347,-2.777 201.979,-18.858c3.618,-0.817 7.235,-1.633 10.962,-2.474c29.875,-6.926 59.039,-15.848 88.257,-25.13c-5.208,0.098 -5.208,0.098 -10.52,0.198c-150.326,2.443 -322.07,1.318 -438.975,-107.669c-70.498,-73.354 -89.265,-164.94 -88.005,-263.363c17.63,2.23 30.375,6.196 45.833,14.844c133.36,68.566 296.977,103.073 445.834,114.323c-3.22,-1.022 -6.439,-2.044 -9.756,-3.098c-184.675,-59.045 -401.971,-132.751 -497.227,-315.619c-15.662,-41.49 -20.095,-81.99 -19.58,-126.075c0.024,-5.053 0.049,-10.105 0.073,-15.311c0.566,-39.329 4.819,-76.687 13.99,-114.897Z" style="fill-rule:nonzero;"/><path d="M1962.5,654.167c23.817,19.641 35.355,40.575 38.379,71.484c1.338,30.046 -6.048,53.744 -24.577,77.474c-22.678,24.112 -43.236,31.197 -76.302,32.292c-33.066,-1.095 -53.624,-8.18 -76.302,-32.292c-21.641,-27.968 -26.069,-51.759 -21.908,-86.865c5.89,-29.973 18.425,-49.017 44.043,-66.26c38.84,-20.364 78.468,-16.402 116.667,4.167Z" style="fill-rule:nonzero;"/><path d="M1471.57,656.299c17.768,14.455 32.459,28.802 36.767,52.034c3.321,37.474 0.74,63.002 -19.791,94.532c-21.56,22.158 -46.206,31.088 -76.823,31.77c-28.798,-0.32 -47.585,-4.931 -68.848,-24.544c-22.712,-24.596 -32.761,-49.571 -31.543,-83.073c3.387,-29.921 16.535,-52.595 38.672,-72.851c38.766,-23.735 84.196,-23.833 121.566,2.132Z" style="fill-rule:nonzero;"/></svg>